<!--?xml version="1.0" standalone="no"?-->
<svg id="sw-js-blob-svg" viewBox="0 0 100 100" xmlns="http://www.w3.org/2000/svg">
    <defs>
        <linearGradient id="sw-gradient" x1="0" x2="1" y1="1" y2="0">
            <stop id="stop1" stop-color="rgba(168, 49, 125, 1)" offset="0%"></stop>
            <stop id="stop2" stop-color="rgba(168, 49, 125, 1)" offset="100%"></stop>
        </linearGradient>
    </defs>
    <path fill="url(#sw-gradient)" d="M17.8,-30.5C21.4,-28.7,21.7,-20.7,25.3,-14.6C29,-8.4,36.1,-4.2,38.1,1.2C40.1,6.6,37.1,13.1,32.5,17.5C27.8,21.9,21.5,24.1,15.8,24.3C10.1,24.5,5.1,22.7,-1.2,24.7C-7.4,26.8,-14.9,32.7,-21.1,32.8C-27.3,32.9,-32.3,27.2,-33.8,20.8C-35.3,14.3,-33.3,7.2,-32.9,0.3C-32.4,-6.6,-33.5,-13.3,-32,-19.7C-30.5,-26.2,-26.4,-32.4,-20.6,-33C-14.8,-33.6,-7.4,-28.7,-0.2,-28.4C7.1,-28.1,14.1,-32.4,17.8,-30.5Z" width="100%" height="100%" transform="translate(50 50)" stroke-width="0" style="transition: all 0.3s ease 0s;"></path>
</svg>