<!--?xml version="1.0" standalone="no"?-->
<svg id="sw-js-blob-svg" viewBox="0 0 100 100" xmlns="http://www.w3.org/2000/svg">
    <defs>
        <linearGradient id="sw-gradient" x1="0" x2="1" y1="1" y2="0">
            <stop id="stop1" stop-color="rgba(168, 49, 125, 1)" offset="0%"></stop>
            <stop id="stop2" stop-color="rgba(168, 49, 125, 1)" offset="100%"></stop>
        </linearGradient>
    </defs>
<path fill="url(#sw-gradient)" d="M12.5,-20.7C16.5,-19.2,20.5,-16.7,22.2,-13.1C23.9,-9.4,23.3,-4.7,25.5,1.3C27.7,7.3,32.8,14.5,30.6,17.4C28.5,20.2,19.1,18.6,12.8,22.6C6.5,26.7,3.3,36.4,-2.3,40.3C-7.8,44.2,-15.5,42.3,-19.7,37C-23.8,31.7,-24.2,23,-27,16.2C-29.8,9.5,-35,4.7,-33.6,0.9C-32.1,-3,-23.9,-6.1,-19.6,-10.2C-15.3,-14.4,-14.9,-19.7,-12.3,-22C-9.6,-24.4,-4.8,-23.7,-0.3,-23.2C4.2,-22.6,8.4,-22.2,12.5,-20.7Z" width="100%" height="100%" transform="translate(50 50)" stroke-width="0" style="transition: all 0.3s ease 0s;"></path>
</svg>