<!--?xml version="1.0" standalone="no"?-->
<svg id="sw-js-blob-svg" viewBox="0 0 100 100" xmlns="http://www.w3.org/2000/svg">
    <defs>
        <linearGradient id="sw-gradient" x1="0" x2="1" y1="1" y2="0">
            <stop id="stop1" stop-color="rgba(168, 49, 125, 1)" offset="0%"></stop>
            <stop id="stop2" stop-color="rgba(168, 49, 125, 1)" offset="100%"></stop>
        </linearGradient>
    </defs>
    <path fill="url(#sw-gradient)" d="M10.3,-16.4C14.6,-15.4,20.1,-15.1,26.9,-12.5C33.6,-9.9,41.6,-4.9,40.8,-0.5C40,4,30.4,8,23.6,10.5C16.8,13.1,12.8,14.1,9.3,18.6C5.9,23.1,2.9,30.9,-2.2,34.7C-7.2,38.4,-14.5,38,-20.5,35C-26.6,32,-31.4,26.5,-30.3,20.2C-29.1,14,-21.9,7,-22.2,-0.2C-22.4,-7.3,-30.2,-14.6,-28.8,-16.4C-27.4,-18.2,-16.8,-14.6,-10.5,-14.4C-4.2,-14.1,-2.1,-17.4,0.5,-18.2C3,-19,6,-17.3,10.3,-16.4Z" width="100%" height="100%" transform="translate(50 50)" stroke-width="0" style="transition: all 0.3s ease 0s;"></path>
</svg>