<!--?xml version="1.0" standalone="no"?-->
<svg id="sw-js-blob-svg" viewBox="0 0 100 100" xmlns="http://www.w3.org/2000/svg">
    <defs>
        <linearGradient id="sw-gradient" x1="0" x2="1" y1="1" y2="0">
            <stop id="stop1" stop-color="rgba(168, 49, 125, 1)" offset="0%"></stop>
            <stop id="stop2" stop-color="rgba(168, 49, 125, 1)" offset="100%"></stop>
        </linearGradient>
    </defs>
    <path fill="url(#sw-gradient)" d="M10.7,-13.3C16.5,-15.2,25.7,-17.7,29.2,-15.6C32.7,-13.4,30.4,-6.7,29.2,-0.7C28,5.3,27.8,10.7,24.7,13.4C21.6,16.1,15.5,16.2,10.9,20.7C6.3,25.2,3.1,34,-1.7,37.1C-6.6,40.1,-13.3,37.3,-20.1,34.1C-26.9,30.8,-33.9,27.2,-35.8,21.5C-37.8,15.7,-34.7,7.9,-33.1,1C-31.4,-5.9,-31.1,-11.9,-28.3,-16.1C-25.5,-20.4,-20.1,-23,-15,-21.4C-9.8,-19.9,-4.9,-14.2,-1.2,-12.1C2.4,-9.9,4.9,-11.3,10.7,-13.3Z" width="100%" height="100%" transform="translate(50 50)" stroke-width="0" style="transition: all 0.3s ease 0s;"></path>
</svg>