<!--?xml version="1.0" standalone="no"?-->
<svg id="sw-js-blob-svg" viewBox="0 0 100 100" xmlns="http://www.w3.org/2000/svg">
    <defs>
        <linearGradient id="sw-gradient" x1="0" x2="1" y1="1" y2="0">
            <stop id="stop1" stop-color="rgba(168, 49, 125, 1)" offset="0%"></stop>
            <stop id="stop2" stop-color="rgba(168, 49, 125, 1)" offset="100%"></stop>
        </linearGradient>
</defs>
<path fill="url(#sw-gradient)" d="M12.4,-26.3C15.4,-19.8,16.5,-15,20.8,-10.9C25.2,-6.8,32.7,-3.4,32.1,-0.3C31.5,2.7,22.8,5.4,18.6,9.8C14.4,14.1,14.7,20,12.3,21.6C10,23.2,5,20.5,1.2,18.5C-2.6,16.4,-5.3,15,-7.2,13.2C-9.1,11.3,-10.3,9,-13.5,6.7C-16.7,4.4,-21.9,2.2,-23.7,-1C-25.5,-4.3,-23.9,-8.6,-20.7,-10.9C-17.6,-13.3,-12.9,-13.7,-9.2,-19.7C-5.4,-25.7,-2.7,-37.3,1,-39C4.7,-40.8,9.5,-32.7,12.4,-26.3Z" width="100%" height="100%" transform="translate(50 50)" stroke-width="0" style="transition: all 0.3s ease 0s;"></path>
</svg>