<svg xmlns="http://www.w3.org/2000/svg" xmlns:xlink="http://www.w3.org/1999/xlink" width="1480" height="1119" viewBox="0 0 1480 1119">
  <defs>
    <style>
      .cls-1 {
        fill-rule: evenodd;
        fill: url(#linear-gradient);
      }
    </style>
    <linearGradient id="linear-gradient" x1="645.469" y1="921.938" x2="645.469" y2="44.938" gradientUnits="userSpaceOnUse">
      <stop offset="0" stop-color="#ff7c54"/>
      <stop offset="1" stop-color="#fc9272"/>
    </linearGradient>
  </defs>
  <path id="Gradient_Fill_1" data-name="Gradient Fill 1" class="cls-1" d="M986,45c111.56-2.019,206.9,49.988,224,140,5.33,28.058-19.49,93.567-26,119-19.17,74.934-30.99,152.269-31,245-0.01,60.169,9.66,113.11,30,154,12.17,24.477,44.91,54.561,28,94-23.35,54.434-112.95,78.825-177,95-219.683,55.475-532.571,26.111-733-25-76.346-19.469-165.44-27.88-207-82-20.879-27.19-24.61-73.954-10-111,24.853-63.02,83.674-131.27,133-171,30.973-24.947,58.178-55.561,90-80,100.771-77.391,202.2-155.495,311-224,56.374-35.5,113.562-74.984,177-103,37.339-16.49,75.361-31.784,119-42Z"/>
</svg>
