<!--?xml version="1.0" standalone="no"?-->
<svg id="sw-js-blob-svg" viewBox="0 0 100 100" xmlns="http://www.w3.org/2000/svg">
    <defs>
        <linearGradient id="sw-gradient" x1="0" x2="1" y1="1" y2="0">
            <stop id="stop1" stop-color="rgba(254, 224, 214, 1)" offset="0%"></stop>
            <stop id="stop2" stop-color="rgba(254, 224, 214, 1)" offset="100%"></stop>
        </linearGradient>
    </defs>
    <path fill="url(#sw-gradient)" d="M17,-27.6C23,-25.9,29.8,-23.5,31.4,-18.8C33,-14,29.6,-7,30.4,0.5C31.3,8,36.4,16,34.7,20.5C33,25.1,24.4,26.2,17.4,29.6C10.5,32.9,5.2,38.6,0.4,38C-4.5,37.3,-9,30.4,-14.8,26.3C-20.5,22.3,-27.4,21,-31.2,17.1C-35,13.2,-35.8,6.6,-34,1.1C-32.2,-4.5,-27.8,-9,-25.2,-15C-22.6,-21.1,-21.8,-28.8,-17.9,-31.8C-14,-34.8,-7,-33.1,-0.8,-31.8C5.4,-30.4,10.9,-29.4,17,-27.6Z" width="100%" height="100%" transform="translate(50 50)" stroke-width="0" style="transition: all 0.3s ease 0s;"></path>
</svg>